<?xml version="1.0" encoding="UTF-8"?>
<svg version="1.1" xmlns="http://www.w3.org/2000/svg" width="300" height="300">
<path d="M0 0 C99 0 198 0 300 0 C300 99 300 198 300 300 C201 300 102 300 0 300 C0 201 0 102 0 0 Z " fill="#FDFDFD" transform="translate(0,0)"/>
<path d="M0 0 C99 0 198 0 300 0 C300 83.16 300 166.32 300 252 C293.91287558 245.91287558 295.5155428 231.02230317 295.16574097 222.68255615 C294.5437052 208.02619463 293.50629017 193.46312464 292.03320312 178.86962891 C291.32554702 171.78139329 290.7937849 164.74359799 290.5625 157.625 C289.85686046 138.45512576 287.35712149 116.30932937 278.87109375 98.875 C277.54629221 96.02340924 276.82574036 93.02771464 276 90 C275.29415068 88.03254644 274.54669794 86.08388239 273.796875 84.1328125 C272.42402494 80.4584197 271.21690639 76.72839406 270 73 C269.34 73 268.68 73 268 73 C267.5359375 71.63875 267.5359375 71.63875 267.0625 70.25 C264.90874413 65.10843575 261.28156133 60.91930523 257.86328125 56.57421875 C256 54 256 54 256 52 C255.34 52 254.68 52 254 52 C252.6559907 50.00715862 251.32458708 48.00580329 250 46 C247.48160145 43.3524528 244.85861167 40.86803756 242.1875 38.375 C240 36 240 36 240 33 C239.43796875 32.91878906 238.8759375 32.83757813 238.296875 32.75390625 C235.26449098 31.75858292 233.61396706 30.07755092 231.25 27.9375 C224.50998772 22.2308953 216.98080594 18.67497589 209 15 C209 14.34 209 13.68 209 13 C208.01 13 207.02 13 206 13 C206 12.34 206 11.68 206 11 C204.783125 10.896875 203.56625 10.79375 202.3125 10.6875 C198.42954449 10.27219652 194.80028765 9.47166841 191.0234375 8.48828125 C184.06570125 6.86204592 177.44026891 6.46371245 170.3125 6.5 C168.48972534 6.50205444 168.48972534 6.50205444 166.63012695 6.50415039 C157.78516639 6.65358821 149.97747883 7.92737275 141.63671875 10.80859375 C137.99556602 12.00145259 134.78782968 12.5736854 131 13 C131 13.66 131 14.32 131 15 C130.46632812 15.21914062 129.93265625 15.43828125 129.3828125 15.6640625 C121.91030498 18.84440307 114.69070925 22.55791882 108.5 27.875 C106 30 106 30 104 30 C103.505 31.485 103.505 31.485 103 33 C98.54285714 37 98.54285714 37 96 37 C95.72800781 37.58394531 95.45601563 38.16789062 95.17578125 38.76953125 C94.01754012 40.96672622 92.72994638 42.74621524 91.1875 44.6875 C78.47969255 61.36262295 74.72084872 82.12871506 77.34130859 102.67626953 C77.75869231 105.42150062 78.23444068 108.14657388 78.75 110.875 C78.90670166 111.72553955 79.06340332 112.5760791 79.22485352 113.45239258 C80.23193762 118.22530533 81.22021604 120.71254084 85 124 C85 124.99 85 125.98 85 127 C81.535 127.495 81.535 127.495 78 128 C78 128.66 78 129.32 78 130 C76.35 130.33 74.7 130.66 73 131 C73 131.66 73 132.32 73 133 C71.9275 133.515625 70.855 134.03125 69.75 134.5625 C62.52381078 138.18201219 55.39399869 142.14692059 48.875 146.9375 C46 149 46 149 44 149 C44 149.66 44 150.32 44 151 C42.5390625 152.5078125 42.5390625 152.5078125 40.625 154.125 C39.99851563 154.66382813 39.37203125 155.20265625 38.7265625 155.7578125 C37 157 37 157 35 157 C34.7525 157.53625 34.505 158.0725 34.25 158.625 C33 161 33 161 31.125 163.6875 C27.72418803 168.98876572 24.81491195 174.68443236 24 181 C23.34 181 22.68 181 22 181 C22.33 187.6 22.66 194.2 23 201 C23.66 201 24.32 201 25 201 C25.34611328 201.79664063 25.34611328 201.79664063 25.69921875 202.609375 C29.01470599 209.79074656 33.19100276 213.00173929 40.36694336 216.13574219 C45.09114584 217.68638445 49.75706827 217.58855421 54.6875 217.5 C55.74316162 217.49081543 56.79882324 217.48163086 57.88647461 217.47216797 C66.20863359 217.27944563 73.17681967 215.88499517 81 213 C86.02420278 211.51443838 91.0829651 210.18453104 96.15625 208.87890625 C102.04400909 207.05920049 107.46807487 204.30546441 112.9375 201.5 C116.64696646 199.61599691 120.32217397 197.76693835 124.25 196.375 C129.76803128 194.35172187 134.95485448 191.66355172 140.109375 188.84765625 C142 188 142 188 145 188 C145 187.34 145 186.68 145 186 C145.66 186 146.32 186 147 186 C147.33 185.34 147.66 184.68 148 184 C148 184.99 148 185.98 148 187 C150.64 187 153.28 187 156 187 C156 187.33 156 187.66 156 188 C154.01432292 188.22786458 152.02864583 188.45572917 150.04296875 188.68359375 C147.80603607 188.97170735 147.80603607 188.97170735 145 190 C144.91857073 191.7492214 144.86061459 193.49954542 144.8125 195.25 C144.77769531 196.22453125 144.74289063 197.1990625 144.70703125 198.203125 C145.05294116 201.50541163 145.9985457 202.41321472 148 205 C148.98675429 207.66840596 149.87253256 210.28180044 150.6875 213 C150.91244141 213.7115625 151.13738281 214.423125 151.36914062 215.15625 C152.43166718 218.61834259 153 221.3470654 153 225 C153.66 225 154.32 225 155 225 C157.74306969 234.08360781 160.36984774 243.16927041 162.61572266 252.38964844 C163.54437435 256.20100951 164.54451238 259.9790982 165.625 263.75 C167.19932186 269.43457841 168.09437512 275.17812574 169 281 C170.02714388 287.12242456 171.1920348 293.05954293 173 299 C173 299.33 173 299.66 173 300 C115.91 300 58.82 300 0 300 C0 201 0 102 0 0 Z " fill="#FDFDFD" transform="translate(0,0)"/>
<path d="M0 0 C0 0.66 0 1.32 0 2 C0.99 2 1.98 2 3 2 C3 2.66 3 3.32 3 4 C3.94875 4.20625 4.8975 4.4125 5.875 4.625 C14.28154788 7.06069999 21.17893396 12.72366437 27.7734375 18.265625 C29.90124472 20.04251615 29.90124472 20.04251615 32.19921875 21.08984375 C34.8180677 22.41347023 35.54056742 24.48977596 37 27 C38.3303125 28.3303125 38.3303125 28.3303125 39.6875 29.6875 C42 32 42 32 42 34 C42.99 34.33 43.98 34.66 45 35 C48 38.44444444 48 38.44444444 48 41 C48.66 41 49.32 41 50 41 C51.5859375 43.01171875 51.5859375 43.01171875 53.375 45.6875 C55.28793442 48.52103412 57.13774857 51.15949834 59.375 53.75 C61.34785155 56.48164061 61.69111613 58.67949834 62 62 C62.66 62 63.32 62 64 62 C64.32613281 62.79664062 64.65226563 63.59328125 64.98828125 64.4140625 C67.66604326 70.9412755 67.66604326 70.9412755 70.6875 77.3125 C71.90913973 79.81395278 72.6979299 82.21663002 73.40625 84.90234375 C74.41564551 88.46843183 75.68028555 91.95126268 76.90234375 95.44921875 C83.25486862 115.99884548 85.34488312 137.25918621 86.31665039 158.64697266 C86.64588615 165.74511926 87.14852107 172.76308548 87.9921875 179.8203125 C89.21971088 190.14051896 89.66598681 200.4695008 90.10449219 210.84814453 C90.09478657 226.35567102 90.09478657 226.35567102 94 241 C94.08991092 242.54227856 94.11756961 244.08840895 94.11352539 245.63330078 C94.11344986 246.59414581 94.11337433 247.55499084 94.11329651 248.54495239 C94.10813522 249.58457123 94.10297394 250.62419006 94.09765625 251.6953125 C94.09553383 253.28918289 94.09553383 253.28918289 94.09336853 254.91525269 C94.08775834 258.31853009 94.07520409 261.72174238 94.0625 265.125 C94.05748631 267.42838447 94.05292318 269.73176997 94.04882812 272.03515625 C94.0377856 277.69012649 94.02103752 283.34505859 94 289 C92.09985352 288.69360352 92.09985352 288.69360352 90 288 C88.7710613 285.6172411 87.83033169 283.44244699 86.9375 280.9375 C86.67928467 280.25155762 86.42106934 279.56561523 86.1550293 278.85888672 C85.6477509 277.50689275 85.1469663 276.152441 84.65332031 274.79541016 C83.90087273 272.72758524 83.1066021 270.677127 82.3125 268.625 C81.879375 267.42875 81.44625 266.2325 81 265 C80.61714844 263.98292969 80.61714844 263.98292969 80.2265625 262.9453125 C77.99038256 256.72386137 76.95364687 250.52718302 76 244 C75.77326689 242.60919007 75.54532218 241.21857732 75.31640625 239.828125 C70.89665898 212.09130313 69.69723656 183.79606446 68.00195312 155.79321289 C67.94226349 154.83057526 67.88257385 153.86793762 67.82107544 152.87612915 C67.70868892 151.06226993 67.59953244 149.24820675 67.49411011 147.43392944 C67.44368561 146.62807404 67.39326111 145.82221863 67.34130859 144.99194336 C67.27827042 143.93903358 67.27827042 143.93903358 67.21395874 142.86485291 C67.03885607 140.77318221 67.03885607 140.77318221 66 138 C65.8236947 136.66149432 65.68394578 135.31793261 65.5703125 133.97265625 C65.49893066 133.18673096 65.42754883 132.40080566 65.35400391 131.59106445 C65.27843262 130.75663818 65.20286133 129.92221191 65.125 129.0625 C64.37682101 121.46028889 63.05885824 114.36255297 61 107 C60.68074569 105.67838851 60.3673224 104.35535984 60.05859375 103.03125 C58.52063103 96.47471222 56.96436388 90.14509352 53.9921875 84.0625 C52.89944576 81.79097387 52.0164032 79.48242995 51.125 77.125 C48.42687483 70.31036766 45.38362414 63.09790107 40 58 C39.566875 57.2575 39.13375 56.515 38.6875 55.75 C35.26484318 50.17233703 30.6700977 45.55035161 26 41 C25.278125 40.2575 24.55625 39.515 23.8125 38.75 C22.4203125 37.38875 22.4203125 37.38875 21 36 C19.93458984 34.95779297 19.93458984 34.95779297 18.84765625 33.89453125 C13.76206831 29.09817106 8.78633541 25.44302321 2.54296875 22.2890625 C0 21 0 21 -2.51171875 19.4609375 C-12.52063064 13.5844335 -24.45776226 12.72182264 -35.8125 12.6875 C-36.67101562 12.68218262 -37.52953125 12.67686523 -38.4140625 12.67138672 C-57.94108632 12.88510415 -78.44579414 20.79898152 -92.52734375 34.484375 C-92.97207031 34.94328125 -93.41679688 35.4021875 -93.875 35.875 C-94.57625 36.57625 -95.2775 37.2775 -96 38 C-96.66 38 -97.32 38 -98 38 C-98.66 39.65 -99.32 41.3 -100 43 C-100.66 43 -101.32 43 -102 43 C-102.37125 44.0209375 -102.37125 44.0209375 -102.75 45.0625 C-103.72762812 47.35992608 -104.74501519 49.35996994 -106 51.5 C-111.42445088 60.87683889 -111.18146935 70.34164982 -111.1875 80.9375 C-111.19974609 82.06607422 -111.21199219 83.19464844 -111.22460938 84.35742188 C-111.23475225 90.16928936 -110.97124991 95.48027134 -109.4309082 101.09985352 C-109 103 -109 103 -109 107 C-108.0409375 106.01 -108.0409375 106.01 -107.0625 105 C-102.96985859 102.32725459 -99.76463209 102.15709488 -95 103 C-92.375 104.4375 -92.375 104.4375 -91 107 C-90.72466239 110.1927446 -91.02696215 112.94589853 -92 116 C-94.91047025 119.15300944 -97.97093562 120.6186065 -102 122 C-102 122.66 -102 123.32 -102 124 C-103.670625 124.804375 -103.670625 124.804375 -105.375 125.625 C-108.71176489 127.28452378 -111.88721007 129.11258995 -115.0625 131.0625 C-118.93355291 133.42650178 -122.82442482 135.22151427 -127 137 C-129.13611761 138.28869984 -131.22450074 139.62889146 -133.30078125 141.01171875 C-135 142 -135 142 -137 142 C-137 142.66 -137 143.32 -137 144 C-137.65226562 144.30292969 -138.30453125 144.60585937 -138.9765625 144.91796875 C-146.69798972 148.61924286 -152.01255212 152.85072921 -158 159 C-158.48726562 159.43828125 -158.97453125 159.8765625 -159.4765625 160.328125 C-163.71761747 164.98241096 -166.32302782 171.66965517 -166.375 177.9375 C-166.23979938 180.71951276 -165.96315066 183.37683084 -165 186 C-164.01 186.33 -163.02 186.66 -162 187 C-161.505 187.99 -161.505 187.99 -161 189 C-157.93726169 189.05410136 -154.87548548 189.09372225 -151.8125 189.125 C-150.51602539 189.15013672 -150.51602539 189.15013672 -149.19335938 189.17578125 C-144.5595888 189.21128907 -141.26184634 188.94400008 -137 187 C-135.65397149 186.67776095 -134.30130726 186.38279341 -132.9453125 186.10546875 C-117.3757913 182.79396869 -102.14115584 177.25912666 -88 170 C-86.53746877 169.27140568 -85.07387495 168.54494149 -83.609375 167.8203125 C-79.73060914 165.89767214 -75.86347372 163.95317414 -72 162 C-69.14675563 160.57337781 -67.16545451 160.68966132 -64 161 C-61.30009338 162.79993774 -59.4581135 164.083773 -58 167 C-57.76923077 172.53846154 -57.76923077 172.53846154 -59 175 C-59.66 175 -60.32 175 -61 175 C-61 175.66 -61 176.32 -61 177 C-62.010625 177.4228125 -63.02125 177.845625 -64.0625 178.28125 C-67.78518245 179.87668534 -71.38990422 181.66271911 -75 183.5 C-79.60692994 185.84459827 -84.23776251 187.9902484 -89 190 C-90.83608719 190.82724808 -92.66962799 191.66018225 -94.5 192.5 C-95.923125 193.14582031 -95.923125 193.14582031 -97.375 193.8046875 C-99.42061355 194.73617224 -101.4613072 195.67846406 -103.5 196.625 C-107.33415121 198.13127369 -111.17344725 199.21720612 -115.15625 200.25390625 C-119.45965327 201.38295848 -123.72578207 202.53009998 -127.90234375 204.0703125 C-135.72222881 206.78764708 -143.00969635 207.45513037 -151.25 207.5625 C-152.25538818 207.58908691 -153.26077637 207.61567383 -154.29663086 207.64306641 C-163.45607273 207.59938187 -171.35610334 204.44256646 -178 198 C-180.11846092 195.00493457 -181 193.69349436 -181 190 C-181.66 190 -182.32 190 -183 190 C-184.14982602 185.90996141 -184.11094256 181.96822949 -184.0625 177.75 C-184.05798828 177.00492188 -184.05347656 176.25984375 -184.04882812 175.4921875 C-184.03709246 173.6614236 -184.0191585 171.83070127 -184 170 C-183.34 170 -182.68 170 -182 170 C-181.9071875 168.576875 -181.9071875 168.576875 -181.8125 167.125 C-180.69627867 159.35861499 -175.94582827 151.93499393 -171 146 C-168.3125 144.8125 -168.3125 144.8125 -166 144 C-164.65589738 141.98264795 -164.65589738 141.98264795 -164 140 C-163.34 140 -162.68 140 -162 140 C-162 139.34 -162 138.68 -162 138 C-157.19035913 134.1227245 -151.62966308 131.1593673 -146.20703125 128.234375 C-143.28685854 126.60114566 -140.50698051 124.77730178 -137.7265625 122.91796875 C-136 122 -136 122 -133 122 C-133 121.34 -133 120.68 -133 120 C-130.525 119.505 -130.525 119.505 -128 119 C-128 118.34 -128 117.68 -128 117 C-125.69 116.67 -123.38 116.34 -121 116 C-121 115.01 -121 114.02 -121 113 C-121.99 112.67 -122.98 112.34 -124 112 C-133.18310789 97.03493529 -131.36486837 74.18312663 -127.90625 57.70703125 C-125.71137187 48.7288444 -121.14922203 41.60655142 -116 34 C-115.18595703 32.79150391 -115.18595703 32.79150391 -114.35546875 31.55859375 C-110.51839084 26.12839995 -110.51839084 26.12839995 -107.88671875 25.4765625 C-107.26410156 25.31929687 -106.64148438 25.16203125 -106 25 C-105.505 23.515 -105.505 23.515 -105 22 C-97.23795125 14.48977344 -85.97027698 5.18065761 -75 4 C-75 3.34 -75 2.68 -75 2 C-49.39675864 -6.89020201 -26.04063329 -7.44018094 0 0 Z " fill="#0B0A0B" transform="translate(206,11)"/>
<path d="M0 0 C0.061875 0.61875 0.12375 1.2375 0.1875 1.875 C0.5896875 2.926875 0.5896875 2.926875 1 4 C1.680625 4.268125 2.36125 4.53625 3.0625 4.8125 C7.89619029 6.76654501 12.6733988 10.20601543 14.95703125 15.015625 C15.5 16.9375 15.5 16.9375 16 20 C16.66 20 17.32 20 18 20 C21.9547045 27.50030164 25.20751162 34.16935028 25.078125 42.79296875 C25.06120605 44.26092896 25.06120605 44.26092896 25.04394531 45.75854492 C25.02944336 46.4982251 25.01494141 47.23790527 25 48 C24.34515625 48.31227539 23.6903125 48.62455078 23.015625 48.94628906 C20.01005019 50.38009258 17.00502194 51.81503813 14 53.25 C12.97003906 53.74113281 11.94007812 54.23226562 10.87890625 54.73828125 C9.86699219 55.22167969 8.85507813 55.70507812 7.8125 56.203125 C6.80469482 56.68338135 5.79688965 57.1636377 4.75854492 57.65844727 C2.53293881 58.74081788 0.35661098 59.87532904 -1.82421875 61.04296875 C-7.24505679 63.76947542 -13.0625771 65.52769972 -18.81665039 67.40942383 C-20.80002486 68.05841792 -22.78005255 68.716885 -24.75976562 69.37695312 C-31.40443445 71.57917614 -38.0616439 73.64655807 -44.8347168 75.41967773 C-46.57387959 75.88579454 -48.29185571 76.43061857 -50 77 C-51.48123547 77.0806622 -52.96582204 77.10761193 -54.44921875 77.09765625 C-55.29677734 77.09443359 -56.14433594 77.09121094 -57.01757812 77.08789062 C-57.89865234 77.07951172 -58.77972656 77.07113281 -59.6875 77.0625 C-60.58017578 77.05798828 -61.47285156 77.05347656 -62.39257812 77.04882812 C-64.59511987 77.03704983 -66.79752599 77.02060164 -69 77 C-69.33 76.01 -69.66 75.02 -70 74 C-72.01508358 73.26676204 -72.01508358 73.26676204 -74 73 C-76.33401046 64.35837448 -74.91223176 58.56841537 -70.66015625 50.6875 C-68.69894603 47.51264674 -66.93867798 45.28563843 -64 43 C-63.34 43 -62.68 43 -62 43 C-61.74605469 42.40445313 -61.49210937 41.80890625 -61.23046875 41.1953125 C-58.5189768 36.35766654 -53.25917526 33.12456118 -48 31.625 C-47.01 31.41875 -46.02 31.2125 -45 31 C-45 30.34 -45 29.68 -45 29 C-43.00447511 27.58662824 -41.03201212 26.31278379 -38.9375 25.0625 C-37.81214844 24.37285156 -36.68679687 23.68320313 -35.52734375 22.97265625 C-32.14290187 21.00201636 -28.60272687 19.5333405 -25 18 C-22.42748905 16.50123275 -19.93448166 14.91319749 -17.4296875 13.3046875 C-14.91942159 11.95673121 -12.80524758 11.40930659 -10 11 C-10 10.34 -10 9.68 -10 9 C-7.76300423 7.37761317 -5.42302461 5.9771559 -3.06640625 4.53515625 C-0.71260243 3.09271887 -0.71260243 3.09271887 0 0 Z " fill="#FCC94A" transform="translate(114,124)"/>
<path d="M0 0 C6.91981095 4.34499757 8.60328566 13.74028883 11.01953125 21.109375 C11.91072428 23.73679668 12.91635801 26.26001516 14 28.8125 C15.57260764 32.69776594 16.62451307 36.41830255 17.4375 40.51953125 C18.12961674 43.57157381 19.05733886 46.51606162 20 49.5 C21.35719744 53.82107715 22.52745673 58.08337425 23.44140625 62.515625 C24.16848091 65.7493277 25.05898546 68.92919618 25.9375 72.125 C27.74201901 78.71581885 29.13064257 85.33533484 30.38671875 92.05078125 C30.85134991 94.91582408 30.85134991 94.91582408 32 97 C32.20330981 98.4118737 32.36476081 99.82998853 32.5 101.25 C32.85168919 104.89249522 33.3942028 108.36521682 34 112 C28.39 112 22.78 112 17 112 C14.39126632 105.71532342 13.12367045 99.69133077 12 93 C10.24167192 83.23399947 7.9201681 73.78260573 5.19921875 64.25 C3.8990223 59.6886217 2.7467919 55.0965514 1.625 50.48828125 C1.07625013 48.30357082 0.4658447 46.1551301 -0.1875 44 C-1 41 -1 41 -1 37 C-1.66 37 -2.32 37 -3 37 C-3.25394531 36.07058594 -3.50789062 35.14117187 -3.76953125 34.18359375 C-6.7536906 23.11802488 -6.7536906 23.11802488 -12 13 C-12.66992163 8.77014599 -12.68330476 5.1673123 -10.5 1.4375 C-6.98359945 -0.58443032 -3.89314022 -0.84091829 0 0 Z " fill="#0C0C0C" transform="translate(156,188)"/>
<path d="M0 0 C1 2 1 2 0.44140625 4.1015625 C0.15136719 4.93429688 -0.13867188 5.76703125 -0.4375 6.625 C-2.08372974 11.87472801 -3.52384155 17.03639091 -0.8671875 22.203125 C0.92501743 24.27027493 0.92501743 24.27027493 3.890625 24.4609375 C13.67802067 24.37114714 13.67802067 24.37114714 22.70703125 20.98828125 C25.91987608 19.60352871 29.17947139 19.39756016 32.625 19.0625 C41.38601345 18.08608019 49.20425088 16.30817714 57 12 C57 11.67 57 11.34 57 11 C61.29 10.67 65.58 10.34 70 10 C70 9.34 70 8.68 70 8 C75.50623443 4.50397814 79.40770855 2.2986924 86 3 C72.92623082 11.71584612 57.48778657 17.27797604 42.6875 22.25 C41.67316895 22.591521 40.65883789 22.93304199 39.61376953 23.28491211 C34.39929795 25.0026858 29.23451706 26.51083115 23.85083008 27.59667969 C21.78454826 28.01238035 21.78454826 28.01238035 19 29 C17.51876453 29.0806622 16.03417796 29.10761193 14.55078125 29.09765625 C13.70322266 29.09443359 12.85566406 29.09121094 11.98242188 29.08789062 C11.10134766 29.07951172 10.22027344 29.07113281 9.3125 29.0625 C8.41982422 29.05798828 7.52714844 29.05347656 6.60742188 29.04882812 C4.40488013 29.03704983 2.20247401 29.02060164 0 29 C-0.33 28.01 -0.66 27.02 -1 26 C-3.01508358 25.26676204 -3.01508358 25.26676204 -5 25 C-7.67157927 15.10853296 -4.99012197 8.77726811 0 0 Z " fill="#DEBF73" transform="translate(45,172)"/>
<path d="M0 0 C4.25890036 0.67245795 5.88363379 1.15303391 8.5625 4.5625 C9.26023096 8.02846434 9.29052614 11.09993663 8.5625 14.5625 C5.78672472 17.42238968 3.93671913 17.52310851 0 17.9375 C-3.4375 17.5625 -3.4375 17.5625 -5.875 16.625 C-8.07663103 13.71884704 -7.99731787 11.37035009 -7.81640625 7.79296875 C-6.9621609 2.76436981 -4.94730177 0.80955847 0 0 Z " fill="#161616" transform="translate(156.4375,74.4375)"/>
<path d="M0 0 C1 2 1 2 0.44140625 4.1015625 C0.15136719 4.93429688 -0.13867188 5.76703125 -0.4375 6.625 C-2.08372974 11.87472801 -3.52384155 17.03639091 -0.8671875 22.203125 C0.92501743 24.27027493 0.92501743 24.27027493 3.890625 24.4609375 C13.75081315 24.2730293 13.75081315 24.2730293 22.91308594 20.96923828 C25.14268893 19.93373011 26.89049389 19.61095061 29.328125 19.3671875 C30.52695313 19.24150391 30.52695313 19.24150391 31.75 19.11328125 C32.9875 18.99533203 32.9875 18.99533203 34.25 18.875 C35.09046875 18.78863281 35.9309375 18.70226562 36.796875 18.61328125 C38.86388223 18.40188278 40.93185928 18.20000538 43 18 C43 18.66 43 19.32 43 20 C42.10796875 20.12117188 41.2159375 20.24234375 40.296875 20.3671875 C39.12640625 20.53476563 37.9559375 20.70234375 36.75 20.875 C35.58984375 21.03742188 34.4296875 21.19984375 33.234375 21.3671875 C30.38519103 21.92463654 28.51630527 22.65197932 26 24 C23.25 24.125 23.25 24.125 21 24 C21 24.66 21 25.32 21 26 C17.91872742 27.54063629 14.68978658 27.14327206 11.3125 27.125 C10.61705078 27.12886719 9.92160156 27.13273437 9.20507812 27.13671875 C4.70548924 27.12831616 0.43968875 26.73315961 -4 26 C-6.37401563 21.40034471 -6.90218639 17.05224377 -6 12 C-4.278122 7.83545787 -2.2259853 3.91534914 0 0 Z M43 17 C45 18 45 18 45 18 Z " fill="#F6C75C" transform="translate(45,172)"/>
<path d="M0 0 C0.33 0 0.66 0 1 0 C1 2.97 1 5.94 1 9 C2.0209375 9.061875 2.0209375 9.061875 3.0625 9.125 C10.49109482 11.33777292 16.70375249 19.03595167 20.484375 25.5625 C24 32.35674157 24 32.35674157 24 36 C24.66 36 25.32 36 26 36 C27.51708428 48.66970387 27.51708428 48.66970387 25 54 C24.67 54 24.34 54 24 54 C23.90203125 53.02160156 23.8040625 52.04320312 23.703125 51.03515625 C22.92311391 44.19661077 22.13411956 38.01508911 18.90234375 31.83203125 C17.95500589 29.90864833 17.44966055 28.09068976 17 26 C16.34 26 15.68 26 15 26 C14.78085938 25.48050781 14.56171875 24.96101563 14.3359375 24.42578125 C11.55195549 18.30328423 8.53772137 14.46123274 2.125 11.8125 C0 10 0 10 -0.30859375 7.59375 C-0.31217574 5.04337568 -0.21450601 2.54070453 0 0 Z " fill="#FAF1CB" transform="translate(115,118)"/>
<path d="M0 0 C3.68264621 1.8413231 5.47049465 2.88027674 8 6 C9.25 9.75 9.25 9.75 10 13 C10.66 13 11.32 13 12 13 C17.03702513 22.55297869 19.55086138 30.08478374 19 41 C16.36 41.99 13.72 42.98 11 44 C10.505 42.515 10.505 42.515 10 41 C11.65 40.34 13.3 39.68 15 39 C15.25715556 31.77107145 15.13657964 26.20486947 11 20 C11 19.01 11 18.02 11 17 C10.34 17 9.68 17 9 17 C8.34 14.36 7.68 11.72 7 9 C6.34 9 5.68 9 5 9 C3.35 6.03 1.7 3.06 0 0 Z " fill="#EAD38F" transform="translate(120,131)"/>
<path d="M0 0 C0.99 0.33 1.98 0.66 3 1 C1.02 1.99 1.02 1.99 -1 3 C-1 3.66 -1 4.32 -1 5 C-1.65226562 5.30292969 -2.30453125 5.60585937 -2.9765625 5.91796875 C-10.69798972 9.61924286 -16.01255212 13.85072921 -22 20 C-22.556875 20.515625 -23.11375 21.03125 -23.6875 21.5625 C-25.2141682 23.23456517 -26.07757479 24.94228223 -27 27 C-27.33 27 -27.66 27 -28 27 C-28 25.35 -28 23.7 -28 22 C-27.34 22 -26.68 22 -26 22 C-25.8453125 21.071875 -25.8453125 21.071875 -25.6875 20.125 C-25 18 -25 18 -22 16 C-20.78715124 12.94570927 -20.78715124 12.94570927 -20 10 C-18.02 9.67 -16.04 9.34 -14 9 C-14 8.34 -14 7.68 -14 7 C-9.38048494 3.18890008 -5.93333307 2.40919538 0 2 C0 1.34 0 0.68 0 0 Z " fill="#2F1807" transform="translate(70,150)"/>
<path d="M0 0 C0.33 0 0.66 0 1 0 C1.28523513 3.37845161 1.46229297 6.63341942 1 10 C-1.5 12 -1.5 12 -4 13 C-4 13.66 -4 14.32 -4 15 C-4.59167969 15.10957031 -5.18335938 15.21914062 -5.79296875 15.33203125 C-10.45721971 16.267925 -13.99069883 17.32713255 -18 20 C-18.66 20 -19.32 20 -20 20 C-20 20.66 -20 21.32 -20 22 C-23.96 22.495 -23.96 22.495 -28 23 C-27.44140625 20.63671875 -27.44140625 20.63671875 -26 18 C-22.77734375 16.70703125 -22.77734375 16.70703125 -18.9375 15.8125 C-16.6126299 15.25783556 -14.29584346 14.66466264 -12 14 C-11.67 13.34 -11.34 12.68 -11 12 C-7.70849974 10.47615729 -4.44068928 9.14689643 -1 8 C-0.67 5.36 -0.34 2.72 0 0 Z " fill="#F3C963" transform="translate(135,160)"/>
<path d="M0 0 C0.33 0.99 0.66 1.98 1 3 C0.38125 3.0825 -0.2375 3.165 -0.875 3.25 C-1.57625 3.4975 -2.2775 3.745 -3 4 C-3.23332031 4.60070312 -3.46664062 5.20140625 -3.70703125 5.8203125 C-5.61300384 9.03340225 -8.53885435 10.10737145 -11.8125 11.625 C-12.42931641 11.9240625 -13.04613281 12.223125 -13.68164062 12.53125 C-23.24113664 17.12305892 -23.24113664 17.12305892 -26.3125 16.625 C-27.1478125 16.315625 -27.1478125 16.315625 -28 16 C-26.68 15.67 -25.36 15.34 -24 15 C-24 14.34 -24 13.68 -24 13 C-22.00447511 11.58662824 -20.03201212 10.31278379 -17.9375 9.0625 C-16.81214844 8.37285156 -15.68679687 7.68320313 -14.52734375 6.97265625 C-11.1282474 4.99632656 -7.63599174 3.49146263 -4 2 C-2.65986503 1.34711373 -1.32258472 0.68774405 0 0 Z " fill="#E2BB5C" transform="translate(93,140)"/>
<path d="M0 0 C0.061875 0.61875 0.12375 1.2375 0.1875 1.875 C0.455625 2.57625 0.72375 3.2775 1 4 C1.7425 4.2475 2.485 4.495 3.25 4.75 C7.35310868 6.6150494 9.05601285 10.02930284 11 14 C11 14.66 11 15.32 11 16 C11.66 16 12.32 16 13 16 C13 16.66 13 17.32 13 18 C12.01 18 11.02 18 10 18 C7 12.25 7 12.25 7 10 C6.34 10 5.68 10 5 10 C4.67 10.66 4.34 11.32 4 12 C4 11.34 4 10.68 4 10 C2.58456585 9.80341192 1.16755969 9.61812454 -0.25 9.4375 C-1.03890625 9.33308594 -1.8278125 9.22867188 -2.640625 9.12109375 C-5.00532874 8.99972651 -6.7511037 9.30366743 -9 10 C-9 10.66 -9 11.32 -9 12 C-14.14209827 16.09030544 -14.14209827 16.09030544 -17.375 15.75 C-17.91125 15.5025 -18.4475 15.255 -19 15 C-12.25 11 -12.25 11 -10 11 C-10 10.34 -10 9.68 -10 9 C-7.76300423 7.37761317 -5.42302461 5.9771559 -3.06640625 4.53515625 C-0.71260243 3.09271887 -0.71260243 3.09271887 0 0 Z " fill="#EDCA60" transform="translate(114,124)"/>
<path d="M0 0 C0.66 0.33 1.32 0.66 2 1 C1.360625 1.103125 0.72125 1.20625 0.0625 1.3125 C-0.618125 1.539375 -1.29875 1.76625 -2 2 C-2.33 2.99 -2.66 3.98 -3 5 C-6.90592633 7.53479284 -11.5457632 8.12959363 -16.02734375 9.12109375 C-19.08478506 10.02506786 -21.3368039 11.27190202 -24 13 C-27.95536511 14.873594 -31.67237189 15.44921097 -36 16 C-36.66 16.185625 -37.32 16.37125 -38 16.5625 C-40.99783506 17.21827642 -43.94439182 17.0587617 -47 17 C-44.45901085 14.45901085 -42.13858811 14.31657687 -38.70605469 13.61181641 C-33.58705966 12.4544543 -28.61918086 10.78889495 -23.625 9.1875 C-22.03558594 8.6915332 -22.03558594 8.6915332 -20.4140625 8.18554688 C-14.076999 6.16250148 -8.12108997 3.80338414 -2.15771484 0.84887695 C-1.44566895 0.56874756 -0.73362305 0.28861816 0 0 Z " fill="#432E1A" transform="translate(114,183)"/>
<path d="M0 0 C-0.48235581 4.34120232 -1.61150446 6.25257118 -5 9 C-5.969375 9.474375 -6.93875 9.94875 -7.9375 10.4375 C-11.32028958 12.16341305 -13.44469265 14.21922436 -16 17 C-16.33 16.34 -16.66 15.68 -17 15 C-17.66 14.67 -18.32 14.34 -19 14 C-17.71034824 12.62437146 -16.37310707 11.29233607 -15 10 C-14.34 10 -13.68 10 -13 10 C-12.75121094 9.40703125 -12.50242187 8.8140625 -12.24609375 8.203125 C-10.82025774 5.68221118 -9.38383287 4.46182089 -7.0625 2.75 C-6.02802734 1.96882812 -6.02802734 1.96882812 -4.97265625 1.171875 C-3 0 -3 0 0 0 Z " fill="#F8CA61" transform="translate(65,157)"/>
<path d="M0 0 C0.33 0.99 0.66 1.98 1 3 C3.64 3 6.28 3 9 3 C9 3.33 9 3.66 9 4 C7.01432292 4.22786458 5.02864583 4.45572917 3.04296875 4.68359375 C0.80603607 4.97170735 0.80603607 4.97170735 -2 6 C-2.33 8.64 -2.66 11.28 -3 14 C-3.33 12.68 -3.66 11.36 -4 10 C-4.66 10 -5.32 10 -6 10 C-6.33 9.01 -6.66 8.02 -7 7 C-8.98 8.65 -10.96 10.3 -13 12 C-13.33 11.67 -13.66 11.34 -14 11 C-14.66 11.66 -15.32 12.32 -16 13 C-16.99 12.34 -17.98 11.68 -19 11 C-15.66666667 9.33333333 -12.33333333 7.66666667 -9 6 C-8.29359375 5.61585938 -7.5871875 5.23171875 -6.859375 4.8359375 C-5 4 -5 4 -2 4 C-2 3.34 -2 2.68 -2 2 C-1.34 2 -0.68 2 0 2 C0 1.34 0 0.68 0 0 Z " fill="#E4E4E6" transform="translate(147,184)"/>
<path d="M0 0 C0.33 0.99 0.66 1.98 1 3 C1.66 3 2.32 3 3 3 C3.33 2.34 3.66 1.68 4 1 C4 9.25 4 17.5 4 26 C-0.16137952 21.83862048 0.07884264 14.18295562 -0.125 8.5390625 C-0.125 5.68969996 -0.09088726 2.8478009 0 0 Z " fill="#CFCFCF" transform="translate(296,226)"/>
<path d="M0 0 C0.66 0 1.32 0 2 0 C2.05534912 0.56920166 2.11069824 1.13840332 2.16772461 1.72485352 C2.42270715 4.33756224 2.68008678 6.95002968 2.9375 9.5625 C3.02451172 10.45775391 3.11152344 11.35300781 3.20117188 12.27539062 C3.58078265 16.11367739 3.98537145 19.90837909 4.59375 23.71875 C5.0304457 27.2459076 4.89045534 30.40287018 4.5625 33.9375 C4.46066406 35.08089844 4.35882813 36.22429687 4.25390625 37.40234375 C4.17011719 38.25957031 4.08632813 39.11679688 4 40 C3.67 40 3.34 40 3 40 C2.56785354 35.58965421 2.14080122 31.17885222 1.71826172 26.76757812 C1.57411982 25.27005019 1.42863801 23.77265055 1.28173828 22.27539062 C1.06962889 20.11100907 0.86250077 17.94619679 0.65625 15.78125 C0.53056641 14.48251953 0.40488281 13.18378906 0.27539062 11.84570312 C-0.00930908 7.87000298 -0.04650122 3.98360433 0 0 Z " fill="#B6B6B6" transform="translate(291,160)"/>
<path d="M0 0 C1 2 1 2 0.4765625 3.890625 C0.19554687 4.66921875 -0.08546875 5.4478125 -0.375 6.25 C-2.45694453 12.7334985 -2.71728147 19.23425313 -3 26 C-3.66 25.67 -4.32 25.34 -5 25 C-7.37500901 17.79735828 -6.36501719 12.14378133 -3 5.4375 C-2.01736346 3.61552808 -1.02310085 1.79956131 0 0 Z " fill="#E0B666" transform="translate(45,172)"/>
<path d="M0 0 C-0.33 0.99 -0.66 1.98 -1 3 C-1.66 3 -2.32 3 -3 3 C-3 3.66 -3 4.32 -3 5 C-4.9570868 5.67031719 -6.91571113 6.33614683 -8.875 7 C-9.96554688 7.37125 -11.05609375 7.7425 -12.1796875 8.125 C-15 9 -15 9 -17 9 C-17 8.34 -17 7.68 -17 7 C-16.34 7 -15.68 7 -15 7 C-15 6.34 -15 5.68 -15 5 C-12.8765984 4.16260219 -10.7512272 3.33019717 -8.625 2.5 C-7.44164063 2.0359375 -6.25828125 1.571875 -5.0390625 1.09375 C-2 0 -2 0 0 0 Z " fill="#DBB97A" transform="translate(103,185)"/>
<path d="M0 0 C0.33 0 0.66 0 1 0 C1 2.97 1 5.94 1 9 C2.0209375 9.061875 2.0209375 9.061875 3.0625 9.125 C9.93867148 11.17322129 14.63195103 17.59193937 19 23 C18.34 23.33 17.68 23.66 17 24 C16.319375 23.29875 15.63875 22.5975 14.9375 21.875 C9.10211705 15.95610918 9.10211705 15.95610918 2.0625 11.75 C0 10 0 10 -0.3046875 7.59765625 C-0.31184685 5.04534776 -0.21466494 2.54258696 0 0 Z " fill="#F7EDCF" transform="translate(115,118)"/>
<path d="M0 0 C8.25 0 16.5 0 25 0 C22.7201003 2.2798997 21.13067963 2.93842768 17.9152832 3.11352539 C17.13499756 3.10828857 16.35471191 3.10305176 15.55078125 3.09765625 C14.70322266 3.09443359 13.85566406 3.09121094 12.98242188 3.08789062 C12.10134766 3.07951172 11.22027344 3.07113281 10.3125 3.0625 C9.41982422 3.05798828 8.52714844 3.05347656 7.60742188 3.04882812 C5.40488013 3.03704983 3.20247401 3.02060164 1 3 C0.67 2.01 0.34 1.02 0 0 Z " fill="#CDB177" transform="translate(44,198)"/>
<path d="M0 0 C0.77730469 0.96679688 0.77730469 0.96679688 1.5703125 1.953125 C4.74555839 4.62809099 6.76610528 4.59094601 10.875 4.75 C12.06867187 4.80671875 13.26234375 4.8634375 14.4921875 4.921875 C17.66316057 4.99249801 20.82840032 5.01939816 24 5 C22 7 22 7 18.515625 7.23046875 C17.09368347 7.22647453 15.6717411 7.21170527 14.25 7.1875 C13.54617187 7.18685547 12.84234375 7.18621094 12.1171875 7.18554688 C7.97898569 7.15093366 4.07524335 6.80095192 0 6 C0 4.02 0 2.04 0 0 Z " fill="#F0CA68" transform="translate(42,192)"/>
<path d="M0 0 C1.5 1.3125 1.5 1.3125 3 3 C3 3.99 3 4.98 3 6 C3.66 6 4.32 6 5 6 C6.51708428 18.66970387 6.51708428 18.66970387 4 24 C3.67 24 3.34 24 3 24 C2.92652344 22.28103516 2.92652344 22.28103516 2.8515625 20.52734375 C2.77647199 18.99737465 2.70092694 17.46742782 2.625 15.9375 C2.57859375 14.80924805 2.57859375 14.80924805 2.53125 13.65820312 C2.27941541 8.81038719 1.50831635 4.61691957 0 0 Z " fill="#FAF5E4" transform="translate(136,148)"/>
<path d="M0 0 C0.66 0.33 1.32 0.66 2 1 C1.67 1.99 1.34 2.98 1 4 C0.34 4 -0.32 4 -1 4 C-1 5.65 -1 7.3 -1 9 C-1.66 9 -2.32 9 -3 9 C-3.66 14.28 -4.32 19.56 -5 25 C-5.33 25 -5.66 25 -6 25 C-6.39566118 16.33941636 -6.19131279 8.84606757 -1.3125 1.4375 C-0.879375 0.963125 -0.44625 0.48875 0 0 Z " fill="#170401" transform="translate(43,168)"/>
<path d="M0 0 C0.66 0 1.32 0 2 0 C3.42969523 4.28908569 1.96786016 7.05634475 0 11 C-2.1875 13.5 -2.1875 13.5 -4 15 C-2.9318153 9.88634986 -1.76892524 4.92772031 0 0 Z " fill="#F9C954" transform="translate(46,172)"/>
<path d="M0 0 C0.66 0.99 1.32 1.98 2 3 C-0.64 3.66 -3.28 4.32 -6 5 C-6 5.66 -6 6.32 -6 7 C-11.14209827 11.09030544 -11.14209827 11.09030544 -14.375 10.75 C-14.91125 10.5025 -15.4475 10.255 -16 10 C-9.25 6 -9.25 6 -7 6 C-7 5.34 -7 4.68 -7 4 C-4.69 2.68 -2.38 1.36 0 0 Z " fill="#CAA45E" transform="translate(111,129)"/>
<path d="M0 0 C1.9375 0.375 1.9375 0.375 4 1 C4.33 1.66 4.66 2.32 5 3 C11.93 3 18.86 3 26 3 C25.67 3.66 25.34 4.32 25 5 C21.58340509 5.05816623 18.16693795 5.09365195 14.75 5.125 C13.29787109 5.15013672 13.29787109 5.15013672 11.81640625 5.17578125 C10.41455078 5.18544922 10.41455078 5.18544922 8.984375 5.1953125 C8.12553711 5.20578613 7.26669922 5.21625977 6.38183594 5.22705078 C3.82096404 4.98293323 2.20488971 4.28990512 0 3 C0 2.01 0 1.02 0 0 Z " fill="#3E2912" transform="translate(40,197)"/>
<path d="M0 0 C0.66 0.33 1.32 0.66 2 1 C1.360625 1.103125 0.72125 1.20625 0.0625 1.3125 C-0.618125 1.539375 -1.29875 1.76625 -2 2 C-2.33 2.99 -2.66 3.98 -3 5 C-5.77332334 6.75480194 -8.55742544 7.46770524 -11.75 8.125 C-12.54921875 8.29257813 -13.3484375 8.46015625 -14.171875 8.6328125 C-14.77515625 8.75398437 -15.3784375 8.87515625 -16 9 C-16 8.34 -16 7.68 -16 7 C-15.18015625 6.66226563 -14.3603125 6.32453125 -13.515625 5.9765625 C-12.43796875 5.53054687 -11.3603125 5.08453125 -10.25 4.625 C-8.64898437 3.96371094 -8.64898437 3.96371094 -7.015625 3.2890625 C-4.08584682 2.09145398 -4.08584682 2.09145398 -1.734375 0.7734375 C-1.16203125 0.51820313 -0.5896875 0.26296875 0 0 Z " fill="#2D1F0C" transform="translate(114,183)"/>
<path d="M0 0 C0 0.66 0 1.32 0 2 C-0.66 2 -1.32 2 -2 2 C-2.33 2.99 -2.66 3.98 -3 5 C-7.09724467 6.54613006 -9.81857651 7.29227216 -14 6 C-12.04414675 4.99515796 -10.08523763 3.99626195 -8.125 3 C-6.48917969 2.1646875 -6.48917969 2.1646875 -4.8203125 1.3125 C-2 0 -2 0 0 0 Z " fill="#342314" transform="translate(130,176)"/>
<path d="M0 0 C-2.29334594 1.52889729 -4.5116544 2.89775099 -6.9375 4.1875 C-7.60652344 4.55230469 -8.27554688 4.91710937 -8.96484375 5.29296875 C-11.39132766 6.13595069 -12.61256629 5.83853936 -15 5 C-9.83783423 1.24569762 -6.43985624 -0.67081836 0 0 Z " fill="#DDBB7D" transform="translate(131,175)"/>
<path d="M0 0 C0.66 0.33 1.32 0.66 2 1 C1.0925 1.598125 0.185 2.19625 -0.75 2.8125 C-3.22901481 4.48106766 -5.63317911 6.17936855 -8 8 C-8.33 7.67 -8.66 7.34 -9 7 C-9.66 7.66 -10.32 8.32 -11 9 C-11.99 8.34 -12.98 7.68 -14 7 C-10.66666667 5.33333333 -7.33333333 3.66666667 -4 2 C-3.27296875 1.59523437 -2.5459375 1.19046875 -1.796875 0.7734375 C-0.90742188 0.39058594 -0.90742188 0.39058594 0 0 Z " fill="#BABBBB" transform="translate(142,188)"/>
<path d="M0 0 C0.66 0 1.32 0 2 0 C1.67 0.886875 1.34 1.77375 1 2.6875 C-0.65048396 8.31309323 -0.15703422 14.19845814 0 20 C-0.99 19.67 -1.98 19.34 -3 19 C-2.88534579 16.77027727 -2.75785234 14.54121247 -2.625 12.3125 C-2.55539063 11.07113281 -2.48578125 9.82976562 -2.4140625 8.55078125 C-2.03577906 5.30682228 -1.38020024 2.93432815 0 0 Z " fill="#492E13" transform="translate(40,177)"/>
<path d="M0 0 C0.99 0.33 1.98 0.66 3 1 C1.87926138 1.83905565 0.75325453 2.67107831 -0.375 3.5 C-1.31472656 4.19609375 -1.31472656 4.19609375 -2.2734375 4.90625 C-4 6 -4 6 -6 6 C-6 6.66 -6 7.32 -6 8 C-7.32 8.33 -8.64 8.66 -10 9 C-10.33 8.01 -10.66 7.02 -11 6 C-9.68 6.33 -8.36 6.66 -7 7 C-6.773125 6.360625 -6.54625 5.72125 -6.3125 5.0625 C-5 3 -5 3 -2.375 2.25 C-1.59125 2.1675 -0.8075 2.085 0 2 C0 1.34 0 0.68 0 0 Z " fill="#3A210B" transform="translate(110,127)"/>
<path d="M0 0 C0.66 0 1.32 0 2 0 C2.33 4.62 2.66 9.24 3 14 C1 13 1 13 0.37890625 11.234375 C-0.02399618 8.85849677 -0.09791478 6.65820483 -0.0625 4.25 C-0.05347656 3.45078125 -0.04445312 2.6515625 -0.03515625 1.828125 C-0.02355469 1.22484375 -0.01195312 0.6215625 0 0 Z " fill="#D0A969" transform="translate(39,184)"/>
<path d="M0 0 C0.66 0.33 1.32 0.66 2 1 C1.401875 1.721875 0.80375 2.44375 0.1875 3.1875 C-1.77422196 5.70971395 -3.41723983 8.2301697 -5 11 C-5.33 10.34 -5.66 9.68 -6 9 C-6.66 8.67 -7.32 8.34 -8 8 C-6.71034824 6.62437146 -5.37310707 5.29233607 -4 4 C-3.34 4 -2.68 4 -2 4 C-1.34 2.68 -0.68 1.36 0 0 Z " fill="#DCB166" transform="translate(54,163)"/>
<path d="M0 0 C0.53625 0.226875 1.0725 0.45375 1.625 0.6875 C-0.66377281 2.97627281 -2.33032166 4.59728598 -5.63671875 4.8828125 C-6.83748047 4.84800781 -6.83748047 4.84800781 -8.0625 4.8125 C-9.27486328 4.78542969 -9.27486328 4.78542969 -10.51171875 4.7578125 C-11.43404297 4.72300781 -11.43404297 4.72300781 -12.375 4.6875 C-11.776875 4.39230469 -11.17875 4.09710938 -10.5625 3.79296875 C-8.80973927 2.90719859 -7.08665519 1.96280604 -5.375 1 C-2.375 -0.3125 -2.375 -0.3125 0 0 Z " fill="#DBDCD9" transform="translate(114.375,202.3125)"/>
<path d="M0 0 C0.66 0.33 1.32 0.66 2 1 C-0.20866368 4.4873637 -2.04746952 5.81424086 -6 7 C-6.99 7 -7.98 7 -9 7 C-9 6.01 -9 5.02 -9 4 C-7.88625 3.71125 -6.7725 3.4225 -5.625 3.125 C-1.99708908 2.30758671 -1.99708908 2.30758671 0 0 Z " fill="#F5C960" transform="translate(103,136)"/>
<path d="M0 0 C0.66 0.33 1.32 0.66 2 1 C1.21625 1.7425 0.4325 2.485 -0.375 3.25 C-2.56504531 5.54433318 -3.82731386 7.12158858 -5 10 C-5.33 10 -5.66 10 -6 10 C-6 8.35 -6 6.7 -6 5 C-5.34 5 -4.68 5 -4 5 C-3.896875 4.360625 -3.79375 3.72125 -3.6875 3.0625 C-3.460625 2.381875 -3.23375 1.70125 -3 1 C-2.01 0.67 -1.02 0.34 0 0 Z " fill="#3C1C08" transform="translate(48,167)"/>
<path d="M0 0 C2.64 1.98 5.28 3.96 8 6 C7.67 6.99 7.34 7.98 7 9 C6.1028125 8.2884375 6.1028125 8.2884375 5.1875 7.5625 C2.99617076 5.83534256 2.99617076 5.83534256 0 5 C0 3.35 0 1.7 0 0 Z " fill="#FDF7E8" transform="translate(116,122)"/>
<path d="M0 0 C0.99 0 1.98 0 3 0 C2.67 0.99 2.34 1.98 2 3 C-0.5625 4.1875 -0.5625 4.1875 -3 5 C-3 5.66 -3 6.32 -3 7 C-3.99 6.67 -4.98 6.34 -6 6 C-4 4 -2 2 0 0 Z " fill="#CDA860" transform="translate(62,157)"/>
<path d="M0 0 C0.66 0.33 1.32 0.66 2 1 C2.4140625 3.06640625 2.4140625 3.06640625 2.625 5.5625 C2.69976562 6.38878906 2.77453125 7.21507812 2.8515625 8.06640625 C2.92503906 9.02353516 2.92503906 9.02353516 3 10 C2.01 10 1.02 10 0 10 C-1.125 2.25 -1.125 2.25 0 0 Z " fill="#2A2A2A" transform="translate(165,206)"/>
<path d="M0 0 C0.66 0 1.32 0 2 0 C2 0.99 2 1.98 2 3 C1.34 3 0.68 3 0 3 C0 7.95 0 12.9 0 18 C-0.33 18 -0.66 18 -1 18 C-1.02684312 15.18743719 -1.04676188 12.37512759 -1.0625 9.5625 C-1.07087891 8.76005859 -1.07925781 7.95761719 -1.08789062 7.13085938 C-1.0965143 5.08704779 -1.0522815 3.04316098 -1 1 C-0.67 0.67 -0.34 0.34 0 0 Z " fill="#D0D0D0" transform="translate(22,178)"/>
<path d="M0 0 C2 1.375 2 1.375 4 3 C4 3.66 4 4.32 4 5 C4.99 5.33 5.98 5.66 7 6 C7.33 6.99 7.66 7.98 8 9 C4.86493389 8.66410006 3.974751 7.97334828 1.75 5.625 C0 3 0 3 0 0 Z " fill="#191919" transform="translate(244,40)"/>
<path d="M0 0 C-1 3 -1 3 -3 4 C-5.3329866 4.04022391 -7.66706666 4.04320247 -10 4 C-6.74659338 1.32755885 -4.23938937 0 0 0 Z " fill="#EFCA7C" transform="translate(103,185)"/>
<path d="M0 0 C-1.32 0.33 -2.64 0.66 -4 1 C-4 1.66 -4 2.32 -4 3 C-3.34 3.33 -2.68 3.66 -2 4 C-4.97 4 -7.94 4 -11 4 C-6.98844558 -0.01155442 -5.52552982 -0.12012021 0 0 Z " fill="#4E4031" transform="translate(142,172)"/>
<path d="M0 0 C0.061875 0.61875 0.12375 1.2375 0.1875 1.875 C0.828919 4.27761141 0.828919 4.27761141 3.5625 5.25 C4.366875 5.4975 5.17125 5.745 6 6 C3.10765685 6.82638376 1.11257569 7 -2 7 C-1.42415568 4.61435923 -0.77772405 2.33317216 0 0 Z " fill="#DDC380" transform="translate(114,124)"/>
<path d="M0 0 C0.98726527 2.66561622 1.0275526 3.90126985 0.25 6.6875 C-1 9 -1 9 -4 10 C-2.99806563 6.20696275 -2.18975773 3.28463659 0 0 Z " fill="#CDCDCD" transform="translate(100,60)"/>
<path d="M0 0 C0.99 0 1.98 0 3 0 C3 0.66 3 1.32 3 2 C-2.75 5 -2.75 5 -5 5 C-5.33 4.01 -5.66 3.02 -6 2 C-3 1 -3 1 0 2 C0 1.34 0 0.68 0 0 Z " fill="#2A1806" transform="translate(92,138)"/>
<path d="M0 0 C2.31 1.98 4.62 3.96 7 6 C6.01 7.485 6.01 7.485 5 9 C2.28404014 5.8459821 1.03153759 4.12615036 0 0 Z " fill="#DADADA" transform="translate(26,206)"/>
<path d="M0 0 C1 3 1 3 0 6 C-2.5625 7.1875 -2.5625 7.1875 -5 8 C-1.125 1.125 -1.125 1.125 0 0 Z " fill="#383838" transform="translate(33,160)"/>
<path d="M0 0 C2.25 0.25 2.25 0.25 4 1 C3.01 2.485 3.01 2.485 2 4 C-1.125 4.1875 -1.125 4.1875 -4 4 C-2.25 1.9375 -2.25 1.9375 0 0 Z " fill="#BC9F59" transform="translate(82,145)"/>
<path d="M0 0 C0.33 0.99 0.66 1.98 1 3 C-1.35438733 4.42944945 -2.48032433 5.08661261 -5.25 4.625 C-5.8275 4.41875 -6.405 4.2125 -7 4 C-4.69 2.68 -2.38 1.36 0 0 Z " fill="#C9A661" transform="translate(93,140)"/>
<path d="M0 0 C1.95216435 3.90432869 2.50639991 6.72213252 3 11 C2.67 10.34 2.34 9.68 2 9 C1.34 9 0.68 9 0 9 C0 6.03 0 3.06 0 0 Z " fill="#B9B9B9" transform="translate(281,251)"/>
<path d="M0 0 C-1.43344 0.53190541 -2.87195367 1.05015258 -4.3125 1.5625 C-5.51326172 1.99755859 -5.51326172 1.99755859 -6.73828125 2.44140625 C-9 3 -9 3 -12 2 C-8.51900375 -1.48099625 -4.51091121 -1.29859565 0 0 Z " fill="#CEB277" transform="translate(85,195)"/>
<path d="M0 0 C2.475 0.495 2.475 0.495 5 1 C5 1.99 5 2.98 5 4 C5.99 4.33 6.98 4.66 8 5 C7.34 5.66 6.68 6.32 6 7 C4.02 4.69 2.04 2.38 0 0 Z " fill="#C3C3C3" transform="translate(240,35)"/>
<path d="M0 0 C2.64 1.65 5.28 3.3 8 5 C5.50907189 6.24546405 4.58919267 5.7767578 2 5 C2 4.34 2 3.68 2 3 C1.34 3 0.68 3 0 3 C0 2.01 0 1.02 0 0 Z " fill="#D1D1D1" transform="translate(211,34)"/>
<path d="M0 0 C2.12508244 3.18762365 2.5020163 5.26512223 3 9 C2.01 8.67 1.02 8.34 0 8 C0 5.36 0 2.72 0 0 Z " fill="#C7C7C7" transform="translate(284,267)"/>
<path d="M0 0 C0.33 0.99 0.66 1.98 1 3 C3.64 3 6.28 3 9 3 C9 3.33 9 3.66 9 4 C7.54263913 4.19491452 6.08405407 4.38069358 4.625 4.5625 C3.81289062 4.66691406 3.00078125 4.77132812 2.1640625 4.87890625 C0 5 0 5 -2 4 C-2 3.34 -2 2.68 -2 2 C-1.34 2 -0.68 2 0 2 C0 1.34 0 0.68 0 0 Z " fill="#C1C1C2" transform="translate(147,184)"/>
<path d="M0 0 C0.66 0 1.32 0 2 0 C2.33 0.99 2.66 1.98 3 3 C2.01 3.33 1.02 3.66 0 4 C-0.33 5.65 -0.66 7.3 -1 9 C-2.25541557 5.23375329 -1.37061958 3.62811066 0 0 Z " fill="#F7C666" transform="translate(46,172)"/>
<path d="M0 0 C0.33 0.99 0.66 1.98 1 3 C-0.98 3.99 -2.96 4.98 -5 6 C-5.33 5.01 -5.66 4.02 -6 3 C-4.02 2.01 -2.04 1.02 0 0 Z " fill="#DCC284" transform="translate(136,169)"/>
<path d="M0 0 C0 0.66 0 1.32 0 2 C-1.75 3.6875 -1.75 3.6875 -4 5 C-6.25 4.6875 -6.25 4.6875 -8 4 C-3.375 0 -3.375 0 0 0 Z " fill="#232323" transform="translate(105,114)"/>
<path d="M0 0 C0 0.66 0 1.32 0 2 C-0.66 2 -1.32 2 -2 2 C-2.33 2.99 -2.66 3.98 -3 5 C-4.65 5 -6.3 5 -8 5 C-3.16129032 0 -3.16129032 0 0 0 Z " fill="#C2C2C2" transform="translate(128,35)"/>
</svg>
